<svg width="308" height="78" viewBox="0 0 308 78" fill="none" xmlns="http://www.w3.org/2000/svg">
<path d="M217.546 33.3153L217.771 37.5367C216.157 37.6493 214.375 37.7244 212.425 37.7613C211.637 44.7785 211.074 51.1761 210.736 56.9535L206.515 56.6718C206.853 51.0071 207.416 44.7221 208.204 37.8177C205.165 37.8559 201.957 37.8372 198.579 37.7613C197.941 44.9656 197.472 50.7818 197.172 55.2085L192.952 54.9276C193.251 50.5372 193.72 44.7785 194.359 37.6493C193.195 37.6124 192.238 37.5742 191.488 37.5367L191.657 33.3153L194.696 33.4279C195.334 26.3 195.822 21.084 196.16 17.7819L200.381 18.1756L198.917 33.5406C202.369 33.6163 205.615 33.6345 208.654 33.5968C209.479 26.9934 210.304 20.9714 211.13 15.5308L215.295 16.1496L215.013 18.2883C214.789 19.7145 214.479 21.872 214.085 24.761C213.691 27.6505 213.306 30.577 212.931 33.5406C214.582 33.5036 216.12 33.4279 217.546 33.3153ZM307.765 40.2943C307.689 40.4826 307.492 40.9514 307.174 41.7012C306.854 42.4523 306.555 43.1276 306.274 43.7271C305.992 44.328 305.588 45.0877 305.063 46.0064C304.537 46.9265 304.003 47.7427 303.459 48.4549C302.915 49.1683 302.221 49.9094 301.377 50.678C300.533 51.4478 299.641 52.0949 298.704 52.6201C297.765 53.1457 296.668 53.5763 295.411 53.9144C294.154 54.2517 292.831 54.4207 291.443 54.4207C290.167 54.4207 288.948 54.2517 287.785 53.9144C286.171 53.5019 284.774 52.8078 283.592 51.8321C282.41 50.8564 281.49 49.6654 280.834 48.2577C280.76 48.0997 280.693 47.9376 280.628 47.7733C280.375 48.1474 280.124 48.5098 279.877 48.8492C279.22 49.7492 278.47 50.6034 277.626 51.4096C276.782 52.2169 275.966 52.8165 275.178 53.2108C274.39 53.6045 273.545 53.7553 272.645 53.6609C271.745 53.5676 270.881 53.1638 270.056 52.4511C269.08 51.5886 268.415 50.4721 268.058 49.1021C267.701 47.7332 267.617 46.4007 267.805 45.1066C267.992 43.8117 268.179 42.4803 268.368 41.1103C268.555 39.7409 268.696 38.6339 268.79 37.7895C268.883 36.9453 268.649 36.2799 268.087 35.7917C267.636 35.4538 266.913 35.5482 265.919 36.0735C264.925 36.5991 263.921 37.556 262.908 38.9436C262.421 39.6565 262.008 40.3882 261.67 41.1385C261.52 42.4892 261.21 44.5432 260.741 47.3015C260.272 50.0591 259.962 52.0387 259.813 53.239L255.592 52.7885C255.779 51.1004 255.986 49.3649 256.211 47.5825C256.436 45.8011 256.633 44.3468 256.802 43.2208C256.971 42.0955 257.12 40.9696 257.252 39.8442C257.383 38.7183 257.478 37.8372 257.534 37.1988C257.59 36.561 257.598 35.9702 257.562 35.4257C257.524 34.8824 257.421 34.5069 257.252 34.3003C257.083 34.0944 256.849 33.9906 256.549 33.9906C254.485 33.916 251.652 36.9553 248.05 43.1081C247.6 47.2364 247.15 50.7625 246.7 53.6891L242.534 53.0136L242.985 49.9181C243.14 48.8378 243.312 47.5174 243.501 45.9651C243.268 46.1264 243.033 46.2837 242.789 46.4289C240.518 47.7796 238.108 48.418 235.557 48.3423C234.393 50.5565 232.874 52.2451 230.998 53.4079C229.121 54.5702 227.076 54.8519 224.863 54.2518C223.512 53.8762 222.377 53.2864 221.458 52.4791C220.538 51.6724 219.882 50.8187 219.488 49.9181C219.094 49.0175 218.85 47.996 218.757 46.8508C218.663 45.7067 218.663 44.6941 218.757 43.8117C218.85 42.931 219.009 42.0204 219.235 41.0821C219.46 40.1446 219.629 39.5163 219.742 39.1966C219.854 38.8785 219.948 38.625 220.023 38.4368L224.019 39.9006C223.869 40.3136 223.709 40.9132 223.54 41.7012C223.372 42.4892 223.231 43.5118 223.118 44.7685C223.006 46.0259 223.183 47.17 223.653 48.2021C224.122 49.2342 224.9 49.9 225.988 50.1998C227.864 50.7254 229.609 49.8248 231.223 47.4979C229.422 46.7857 227.902 45.7349 226.664 44.3468C225.426 42.9586 224.618 41.3269 224.244 39.4499C223.869 37.5742 224.206 35.5666 225.257 33.4279C226.194 31.5522 227.545 30.2297 229.309 29.46C231.072 28.6913 232.817 28.7195 234.543 29.5444C235.931 30.2578 236.954 31.4114 237.611 33.0062C238.267 34.6013 238.483 36.4672 238.258 38.6057C238.108 40.4069 237.77 42.227 237.245 44.0651C240.433 43.578 242.779 41.7205 244.28 38.4931L244.341 38.5215C244.653 35.5061 244.916 32.5865 245.124 29.7697L249.344 30.1076C249.307 30.3324 249.232 30.9795 249.12 32.0492C249.007 33.1187 248.931 33.7471 248.894 33.9342C251.371 31.0833 253.978 29.6952 256.718 29.7697C259.381 29.8454 261.032 31.2706 261.67 34.047C264.897 30.9707 267.861 30.4081 270.562 32.3589C271.688 33.1844 272.513 34.3098 273.039 35.7356C273.564 37.1617 273.817 38.6057 273.799 40.069C273.779 41.5322 273.677 42.9391 273.489 44.2904C273.301 45.6411 273.123 46.7857 272.955 47.7232C272.786 48.6615 272.757 49.1683 272.87 49.2429C272.907 49.2811 272.926 49.3185 272.926 49.3555C273.526 49.3555 274.708 48.2208 276.472 45.9508C278.172 43.7624 279.626 41.3715 280.837 38.7817C281.01 38.2973 281.204 37.8075 281.426 37.3114C282.813 34.085 284.633 31.8151 286.884 30.5014C289.136 29.1883 291.33 29.0012 293.47 29.9387C295.27 30.7267 296.489 32.0774 297.128 33.9906C297.765 35.9045 297.615 37.9305 296.677 40.069C295.739 42.1329 294.117 43.5588 291.809 44.3468C289.502 45.1348 286.921 44.9469 284.07 43.7835C284.07 45.7731 284.746 47.339 286.096 48.4831C287.448 49.6285 289.229 50.1998 291.443 50.1998C292.456 50.1998 293.413 50.0784 294.313 49.8338C295.214 49.5902 295.993 49.2904 296.649 48.9337C297.305 48.5776 297.953 48.0988 298.591 47.4979C299.228 46.8983 299.745 46.3356 300.139 45.81C300.533 45.2848 300.945 44.6378 301.377 43.8679C301.807 43.0994 302.145 42.461 302.39 41.9547C302.634 41.4477 302.925 40.8199 303.263 40.069C303.6 39.3192 303.843 38.7747 303.994 38.4368L307.765 40.2943ZM285.084 39.5063C286.059 40.069 286.988 40.4264 287.869 40.5758C288.751 40.7261 289.52 40.6979 290.177 40.4915C290.833 40.2854 291.387 39.9944 291.837 39.6189C292.287 39.2441 292.625 38.8121 292.85 38.3247C293.301 37.0492 293.403 36.0453 293.16 35.3136C292.915 34.582 292.456 34.085 291.781 33.8222C291.556 33.7096 291.311 33.6445 291.049 33.625C290.787 33.6063 290.477 33.625 290.121 33.6814C289.763 33.7376 289.389 33.8878 288.995 34.1313C288.601 34.376 288.197 34.6853 287.785 35.0601C287.372 35.4357 286.949 35.9702 286.519 36.6643C286.087 37.3589 285.665 38.1369 285.252 39C285.215 39.1126 285.158 39.281 285.084 39.5063ZM232.629 33.3153C232.104 33.0536 231.504 33.0718 230.829 33.3715C230.154 33.6725 229.553 34.3285 229.028 35.3418C228.164 37.2927 228.118 38.9911 228.887 40.4351C229.655 41.8796 231.016 42.9391 232.967 43.6151C233.53 41.9265 233.905 40.1254 234.093 38.212C234.318 35.5859 233.83 33.9537 232.629 33.3153Z" fill="white"/>
<path d="M116.436 43.5638L110.624 29.2534H102.224L112.383 52.9901L108.427 62.1232H116.876L131.04 29.2534H122.639L116.436 43.5638Z" fill="white"/>
<path d="M151.31 31.2555C149.405 29.546 146.865 28.5693 143.691 28.5693C137.195 28.5693 131.725 33.8442 131.725 41.5609C131.725 49.3268 137.195 54.5525 143.691 54.5525C146.865 54.5525 149.405 53.576 151.31 51.8665V53.8201H159.124V29.3019H151.31V31.2555ZM145.302 47.9103C141.883 47.9103 139.393 45.3706 139.393 41.5609C139.393 37.8004 141.883 35.2115 145.302 35.2115C148.477 35.2115 151.31 37.8004 151.31 41.5609C151.31 45.3706 148.477 47.9103 145.302 47.9103Z" fill="white"/>
<path d="M179.004 38.9233L173.241 37.7512C171.678 37.4094 171.385 36.7256 171.385 36.042C171.385 35.1629 172.069 34.137 174.169 34.137C176.562 34.137 178.027 35.5048 178.272 37.0188L185.402 35.6023C184.426 31.3531 180.372 28.5693 174.267 28.5693C168.064 28.5693 163.717 31.8414 163.717 36.8721C163.717 40.7304 166.306 43.1725 170.848 44.0028L175.83 44.9797C177.637 45.3216 178.272 45.9566 178.272 46.7869C178.272 47.8615 177.148 48.7406 175.097 48.7406C172.997 48.7406 171.092 47.959 170.75 45.8591L163.131 47.4218C163.961 52.4525 168.894 54.5525 174.657 54.5525C181.104 54.5525 185.793 51.7198 185.793 46.2984C185.793 42.6842 183.644 39.9003 179.004 38.9233Z" fill="white"/>
<path d="M67.041 40.8512C66.4729 41.1648 65.155 42.0254 65.2456 39.7821C65.2977 38.4943 65.9311 34.1813 67.2498 30.0925C71.1457 26.2662 76.9537 19.4425 74.0885 17.4245C71.5904 15.6651 67.4804 24.365 65.3098 29.6975C65.3018 29.7218 57.8301 49.057 55.5878 55.4201C49.7204 72.0704 37.8214 77.6537 27.8153 77.6537C26.1888 77.6537 24.605 77.5009 23.0857 77.2222C10.14 74.8239 0 63.2207 0 50.8083H16.8339C16.8339 55.1388 21.1884 59.7532 26.1539 60.667C33.775 62.0818 38.017 54.2035 39.8687 49.3828C40.2572 48.3779 40.6377 47.373 41.0129 46.3681C37.0684 45.7008 34.0162 44.168 31.8108 42.6326C19.6958 34.1755 18.0907 15.9614 17.3216 7.20684C17.2493 6.35465 17.1528 5.30422 17.0965 4.89428C17.1153 4.972 17.1314 5.04162 17.1474 5.10324L33.4829 1.03815C33.7857 2.252 33.8983 3.56516 34.0885 5.73038C34.5548 10.9664 35.7794 24.8714 41.447 28.8266C42.0178 29.226 43.6069 30.338 47.3504 29.703C49.5612 24.1319 51.788 19.0083 54.1676 14.6859C56.3382 10.7414 62.9544 -1.26106 74.6111 0.108234C81.1576 0.877341 86.1017 6.44846 86.6349 13.6489C87.2513 22.1007 83.0978 31.9761 67.041 40.8512Z" fill="white"/>
<path d="M73.1805 72.612C77.7486 72.612 81.4518 68.9088 81.4518 64.3407C81.4518 59.7725 77.7486 56.0693 73.1805 56.0693C68.6124 56.0693 64.9092 59.7725 64.9092 64.3407C64.9092 68.9088 68.6124 72.612 73.1805 72.612Z" fill="white"/>
</svg>
