<svg width="52" height="47" viewBox="0 0 52 47" fill="none" xmlns="http://www.w3.org/2000/svg">
<path d="M39.9315 24.3321C39.5931 24.5189 38.8081 25.0315 38.8621 23.6953C38.8931 22.9283 39.2704 20.3593 40.0558 17.9239C42.3763 15.6449 45.8358 11.5805 44.1292 10.3785C42.6412 9.33055 40.1932 14.5124 38.9003 17.6887C38.8955 17.7031 34.4452 29.2197 33.1096 33.0098C29.6149 42.9272 22.5275 46.2527 16.5676 46.2527C15.5988 46.2527 14.6554 46.1617 13.7505 45.9957C6.03965 44.5672 0 37.656 0 30.2629H10.0267C10.0267 32.8422 12.6204 35.5907 15.578 36.135C20.1173 36.9777 22.644 32.2851 23.7469 29.4138C23.9783 28.8152 24.205 28.2167 24.4284 27.6181C22.0789 27.2207 20.261 26.3077 18.9474 25.3932C11.7314 20.3558 10.7753 9.50707 10.3172 4.2926C10.2741 3.785 10.2167 3.15934 10.1832 2.91517C10.1944 2.96147 10.2039 3.00293 10.2135 3.03964L19.9434 0.618351C20.1237 1.34135 20.1908 2.12351 20.3041 3.41318C20.5818 6.5319 21.3112 14.8141 24.687 17.1699C25.027 17.4078 25.9735 18.0702 28.2032 17.692C29.52 14.3736 30.8464 11.3219 32.2637 8.74736C33.5566 6.39785 37.4974 -0.751123 44.4404 0.0644669C48.3397 0.522569 51.2845 3.84088 51.6022 8.12964C51.9693 13.1638 49.4954 19.0459 39.9315 24.3321Z" fill="#151533"/>
<path d="M43.5878 43.2497C46.3087 43.2497 48.5144 41.044 48.5144 38.3231C48.5144 35.6022 46.3087 33.3965 43.5878 33.3965C40.8669 33.3965 38.6611 35.6022 38.6611 38.3231C38.6611 41.044 40.8669 43.2497 43.5878 43.2497Z" fill="#FF004F"/>
</svg>
